<?xml version="1.0" encoding="UTF-8" standalone="no"?>
<svg
   xmlns:dc="http://purl.org/dc/elements/1.1/"
   xmlns:cc="http://creativecommons.org/ns#"
   xmlns:rdf="http://www.w3.org/1999/02/22-rdf-syntax-ns#"
   xmlns:svg="http://www.w3.org/2000/svg"
   xmlns="http://www.w3.org/2000/svg"
   xmlns:sodipodi="http://sodipodi.sourceforge.net/DTD/sodipodi-0.dtd"
   xmlns:inkscape="http://www.inkscape.org/namespaces/inkscape"
   inkscape:version="1.0 (6e3e5246a0, 2020-05-07)"
   sodipodi:docname="logo.svg"
   id="svg8"
   style="fill:none"
   height="171.21484"
   width="231.21484"
   version="1.1">
  <metadata
     id="metadata14">
    <rdf:RDF>
      <cc:Work
         rdf:about="">
        <dc:format>image/svg+xml</dc:format>
        <dc:type
           rdf:resource="http://purl.org/dc/dcmitype/StillImage" />
      </cc:Work>
    </rdf:RDF>
  </metadata>
  <defs
     id="defs12" />
  <sodipodi:namedview
     inkscape:current-layer="svg8"
     inkscape:window-maximized="0"
     inkscape:window-y="395"
     inkscape:window-x="61"
     inkscape:cy="123.10742"
     inkscape:cx="295.60742"
     inkscape:zoom="1.8888889"
     showgrid="false"
     id="namedview10"
     inkscape:window-height="480"
     inkscape:window-width="1690"
     inkscape:pageshadow="2"
     inkscape:pageopacity="0"
     guidetolerance="10"
     gridtolerance="10"
     objecttolerance="10"
     borderopacity="1"
     bordercolor="#666666"
     pagecolor="#ffffff" />
  <path
     id="path2"
     style="fill:#24292e;fill-opacity:1;stroke:#3e3d42;stroke-width:15;stroke-linecap:round;stroke-linejoin:round"
     d="" />
  <path
     id="path4"
     style="fill:#24292e;fill-opacity:1;stroke:#ff2851;stroke-width:15;stroke-linecap:round;stroke-linejoin:round"
     d="" />
  <path
     id="path841"
     d="m 85.607422,0 -25.607421,25.607422 20.304691,20.302735 5.30273,5.304686 10.60742,-10.60742 -5.304691,-5.302735 -9.697259,-9.697266 4.39453,-4.394532 9.69727,9.697266 5.302728,5.304688 10.60742,-10.607422 -5.30469,-5.302734 z M 145.60742,0 70.607421,75.001952 25.607423,30.000001 10.607422,44.999999 5.3046881,50.304689 0,55.607423 l 5.3046881,5.302729 5.3027339,5.304689 59.999999,59.999999 89.999999,-89.999996 5.30273,-5.304688 5.30469,-5.302734 -5.30469,-5.302734 L 160.60742,15 Z m 0,21.21289 4.39453,4.394532 -79.394529,79.394528 -49.39453,-49.394527 4.394532,-4.39453 44.999998,45.001949 z m 60,8.787111 -45,45.001951 -9.69727,-9.69726 -5.30273,-5.304691 L 135,70.607421 l 5.30469,5.302731 20.30273,20.30469 45,-45.001949 4.39453,4.39453 L 160.60742,105.00195 135.91015,80.304693 130.60742,75.000001 120,85.607422 l 5.30469,5.30273 24.69726,24.697268 5.30274,5.30273 5.30273,5.30469 5.30273,-5.30469 5.30469,-5.30273 60,-59.999997 z m -90,60.000001 -5.30273,5.304689 -5.30469,5.302729 -14.999998,15 30.001948,30 -4.39453,4.39453 -9.69727,-9.69726 -5.30273,-5.30469 -10.607418,10.60742 5.30469,5.30273 20.302728,20.30469 25.60742,-25.60742 -30.00195,-30 4.39453,-4.39453 9.69727,9.69726 5.30273,5.30469 10.60742,-10.60742 -5.30469,-5.30273 -9.69531,-9.69727 h -0.002 l -5.30274,-5.302729 z"
     style="color:#000000;font-style:normal;font-variant:normal;font-weight:normal;font-stretch:normal;font-size:medium;line-height:normal;font-family:sans-serif;font-variant-ligatures:normal;font-variant-position:normal;font-variant-caps:normal;font-variant-numeric:normal;font-variant-alternates:normal;font-variant-east-asian:normal;font-feature-settings:normal;font-variation-settings:normal;text-indent:0;text-align:start;text-decoration:none;text-decoration-line:none;text-decoration-style:solid;text-decoration-color:#000000;letter-spacing:normal;word-spacing:normal;text-transform:none;writing-mode:lr-tb;direction:ltr;text-orientation:mixed;dominant-baseline:auto;baseline-shift:baseline;text-anchor:start;white-space:normal;shape-padding:0;shape-margin:0;inline-size:0;clip-rule:nonzero;display:inline;overflow:visible;visibility:visible;opacity:1;isolation:auto;mix-blend-mode:normal;color-interpolation:sRGB;color-interpolation-filters:linearRGB;solid-color:#000000;solid-opacity:1;vector-effect:none;fill:#24292e;fill-opacity:1;fill-rule:nonzero;stroke:none;stroke-width:15;stroke-linecap:square;stroke-linejoin:miter;stroke-miterlimit:4;stroke-dasharray:none;stroke-dashoffset:0;stroke-opacity:1;color-rendering:auto;image-rendering:auto;shape-rendering:auto;text-rendering:auto;enable-background:accumulate;stop-color:#000000;stop-opacity:1" />
</svg>
